<svg t="1590137126177" class="icon" viewBox="0 0 1024 1024" version="1.1" xmlns="http://www.w3.org/2000/svg" p-id="1642"
     width="200" height="200">
  <path
    d="M485.376 752.299a39.185 39.185 0 0 0 55.5 0L717.62 575.625a39.185 39.185 0 0 0-55.296-55.365l-109.91 109.773v-518.28a39.253 39.253 0 0 0-78.37 0v518.28L364.204 520.26a39.049 39.049 0 0 0-55.296 0 39.322 39.322 0 0 0-0.137 55.365l176.606 176.742z m495.138-163.021a39.253 39.253 0 0 0-39.185 39.185V849.92a23.415 23.415 0 0 1-23.347 23.347H105.95a23.415 23.415 0 0 1-23.347-23.347V628.326a39.253 39.253 0 0 0-78.302 0v252.587c0 38.912 31.607 70.451 70.314 70.451h874.77c38.843 0 70.314-31.607 70.314-70.383V628.395a39.185 39.185 0 0 0-39.185-39.117z"
    opacity=".848" p-id="1643"></path>
</svg>
