<svg t="1590134839161" class="icon" viewBox="0 0 1024 1024" version="1.1" xmlns="http://www.w3.org/2000/svg" p-id="1931"
     width="200" height="200">
  <path d="M163.84 0h696.32Q1024 0 1024 163.84v696.32Q1024 1024 860.16 1024H163.84Q0 1024 0 860.16V163.84Q0 0 163.84 0z"
        fill="#F5A623" p-id="1932"></path>
  <path
    d="M399.155 461.19l115.098 398.97L629.33 461.19H399.135z m-113.91-214.836L184.32 415.15h164.454l65.72-168.796H285.246z m182.641 0l-68.73 168.796H629.33l-68.772-168.796h-92.672zM193.905 462.5l113.664 143.954c0.266-0.123 147.927 187.412 147.927 187.412L351.13 462.5H193.905z m406.18-209.367l67.133 167.444 169.84 0.041-105-167.485H600.084zM566.476 791.08l197.468-248.525c-0.348-0.164 63.324-80.077 63.324-80.077H668.324L566.477 791.081z"
    fill="#FFFFFF" p-id="1933"></path>
</svg>
