<svg t="1590131209020" class="icon" viewBox="0 0 1024 1024" version="1.1" xmlns="http://www.w3.org/2000/svg" p-id="2260"
     width="200" height="200">
  <path
    d="M704 160 320 160c-38.4 0-64 25.6-64 64l0 576c0 38.4 25.6 64 64 64l384 0c38.4 0 64-25.6 64-64l0-576C768 185.6 742.4 160 704 160zM588.8 800c0 12.8-12.8 25.6-25.6 25.6L460.8 825.6c-12.8 0-25.6-12.8-25.6-25.6l0-12.8c0-12.8 12.8-25.6 25.6-25.6l102.4 0c12.8 0 25.6 12.8 25.6 25.6L588.8 800zM704 697.6c0 12.8-12.8 25.6-25.6 25.6L345.6 723.2c-12.8 0-25.6-12.8-25.6-25.6L320 249.6c0-12.8 12.8-25.6 25.6-25.6l332.8 0c12.8 0 25.6 12.8 25.6 25.6L704 697.6z"
    p-id="2261" fill="#ffffff"></path>
</svg>
